<mxfile host="app.diagrams.net" modified="2023-03-26T21:47:17.905Z" agent="Mozilla/5.0 (Windows NT 10.0; Win64; x64) AppleWebKit/537.36 (KHTML, like Gecko) Chrome/111.0.0.0 Safari/537.36" etag="h5R9qHV9ne3g0CtxVUeZ" version="21.1.1" type="github">
  <diagram name="Halaman-1" id="XmxOvHVFqEo9q_UAqhoj">
    <mxGraphModel dx="880" dy="452" grid="1" gridSize="10" guides="1" tooltips="1" connect="1" arrows="1" fold="1" page="1" pageScale="1" pageWidth="827" pageHeight="1169" math="0" shadow="0">
      <root>
        <mxCell id="0" />
        <mxCell id="1" parent="0" />
        <mxCell id="PxqxfpaHqG03hSLTdIMs-1" value="Pegawai" style="whiteSpace=wrap;html=1;align=center;verticalAlign=top;" parent="1" vertex="1">
          <mxGeometry x="260" y="170" width="240" height="190" as="geometry" />
        </mxCell>
        <mxCell id="PxqxfpaHqG03hSLTdIMs-2" value="Dokter" style="whiteSpace=wrap;html=1;align=center;" parent="1" vertex="1">
          <mxGeometry x="274" y="205" width="100" height="40" as="geometry" />
        </mxCell>
        <mxCell id="PxqxfpaHqG03hSLTdIMs-3" value="Perawat" style="whiteSpace=wrap;html=1;align=center;" parent="1" vertex="1">
          <mxGeometry x="384" y="205" width="100" height="40" as="geometry" />
        </mxCell>
        <mxCell id="PxqxfpaHqG03hSLTdIMs-4" value="Apoteker" style="whiteSpace=wrap;html=1;align=center;" parent="1" vertex="1">
          <mxGeometry x="274" y="260" width="100" height="40" as="geometry" />
        </mxCell>
        <mxCell id="PxqxfpaHqG03hSLTdIMs-5" value="Kepala RS" style="whiteSpace=wrap;html=1;align=center;" parent="1" vertex="1">
          <mxGeometry x="384" y="260" width="100" height="40" as="geometry" />
        </mxCell>
        <mxCell id="PxqxfpaHqG03hSLTdIMs-6" value="Cleaning Service" style="whiteSpace=wrap;html=1;align=center;" parent="1" vertex="1">
          <mxGeometry x="329" y="310" width="100" height="40" as="geometry" />
        </mxCell>
        <mxCell id="PxqxfpaHqG03hSLTdIMs-7" value="" style="edgeStyle=entityRelationEdgeStyle;fontSize=12;html=1;endArrow=ERzeroToMany;startArrow=ERzeroToOne;rounded=0;exitX=0.5;exitY=1;exitDx=0;exitDy=0;entryX=0;entryY=0.5;entryDx=0;entryDy=0;" parent="1" source="PxqxfpaHqG03hSLTdIMs-1" target="PxqxfpaHqG03hSLTdIMs-1" edge="1">
          <mxGeometry width="100" height="100" relative="1" as="geometry">
            <mxPoint x="460" y="400" as="sourcePoint" />
            <mxPoint x="420" y="430" as="targetPoint" />
            <Array as="points">
              <mxPoint x="250" y="400" />
            </Array>
          </mxGeometry>
        </mxCell>
        <mxCell id="PxqxfpaHqG03hSLTdIMs-29" style="edgeStyle=orthogonalEdgeStyle;rounded=0;orthogonalLoop=1;jettySize=auto;html=1;exitX=0;exitY=0.5;exitDx=0;exitDy=0;entryX=1;entryY=0.5;entryDx=0;entryDy=0;" parent="1" source="PxqxfpaHqG03hSLTdIMs-8" target="PxqxfpaHqG03hSLTdIMs-9" edge="1">
          <mxGeometry relative="1" as="geometry" />
        </mxCell>
        <mxCell id="PxqxfpaHqG03hSLTdIMs-8" value="Contact Pegawai" style="whiteSpace=wrap;html=1;align=center;" parent="1" vertex="1">
          <mxGeometry x="310" y="30" width="100" height="40" as="geometry" />
        </mxCell>
        <mxCell id="PxqxfpaHqG03hSLTdIMs-9" value="No Telepon" style="ellipse;whiteSpace=wrap;html=1;align=center;fontStyle=4;" parent="1" vertex="1">
          <mxGeometry x="160" y="30" width="100" height="40" as="geometry" />
        </mxCell>
        <mxCell id="PxqxfpaHqG03hSLTdIMs-28" style="edgeStyle=orthogonalEdgeStyle;rounded=0;orthogonalLoop=1;jettySize=auto;html=1;exitX=0.5;exitY=0;exitDx=0;exitDy=0;entryX=0.5;entryY=1;entryDx=0;entryDy=0;" parent="1" source="PxqxfpaHqG03hSLTdIMs-13" target="PxqxfpaHqG03hSLTdIMs-8" edge="1">
          <mxGeometry relative="1" as="geometry" />
        </mxCell>
        <mxCell id="PxqxfpaHqG03hSLTdIMs-13" value="employee contact" style="shape=rhombus;perimeter=rhombusPerimeter;whiteSpace=wrap;html=1;align=center;" parent="1" vertex="1">
          <mxGeometry x="300" y="90" width="120" height="60" as="geometry" />
        </mxCell>
        <mxCell id="PxqxfpaHqG03hSLTdIMs-31" style="edgeStyle=orthogonalEdgeStyle;rounded=0;orthogonalLoop=1;jettySize=auto;html=1;exitX=0.5;exitY=1;exitDx=0;exitDy=0;entryX=0.5;entryY=0;entryDx=0;entryDy=0;" parent="1" source="PxqxfpaHqG03hSLTdIMs-14" target="PxqxfpaHqG03hSLTdIMs-15" edge="1">
          <mxGeometry relative="1" as="geometry" />
        </mxCell>
        <mxCell id="PxqxfpaHqG03hSLTdIMs-14" value="employee room" style="shape=rhombus;perimeter=rhombusPerimeter;whiteSpace=wrap;html=1;align=center;" parent="1" vertex="1">
          <mxGeometry x="319" y="430" width="120" height="60" as="geometry" />
        </mxCell>
        <mxCell id="PxqxfpaHqG03hSLTdIMs-32" style="edgeStyle=orthogonalEdgeStyle;rounded=0;orthogonalLoop=1;jettySize=auto;html=1;exitX=0;exitY=0.5;exitDx=0;exitDy=0;entryX=0.5;entryY=0;entryDx=0;entryDy=0;" parent="1" source="PxqxfpaHqG03hSLTdIMs-15" target="PxqxfpaHqG03hSLTdIMs-17" edge="1">
          <mxGeometry relative="1" as="geometry" />
        </mxCell>
        <mxCell id="PxqxfpaHqG03hSLTdIMs-33" style="edgeStyle=orthogonalEdgeStyle;rounded=0;orthogonalLoop=1;jettySize=auto;html=1;" parent="1" source="PxqxfpaHqG03hSLTdIMs-15" target="PxqxfpaHqG03hSLTdIMs-16" edge="1">
          <mxGeometry relative="1" as="geometry" />
        </mxCell>
        <mxCell id="PxqxfpaHqG03hSLTdIMs-34" style="edgeStyle=orthogonalEdgeStyle;rounded=0;orthogonalLoop=1;jettySize=auto;html=1;entryX=0.5;entryY=0;entryDx=0;entryDy=0;" parent="1" source="PxqxfpaHqG03hSLTdIMs-15" target="PxqxfpaHqG03hSLTdIMs-18" edge="1">
          <mxGeometry relative="1" as="geometry" />
        </mxCell>
        <mxCell id="PxqxfpaHqG03hSLTdIMs-35" style="edgeStyle=orthogonalEdgeStyle;rounded=0;orthogonalLoop=1;jettySize=auto;html=1;entryX=0.5;entryY=0;entryDx=0;entryDy=0;" parent="1" source="PxqxfpaHqG03hSLTdIMs-15" target="PxqxfpaHqG03hSLTdIMs-20" edge="1">
          <mxGeometry relative="1" as="geometry" />
        </mxCell>
        <mxCell id="PxqxfpaHqG03hSLTdIMs-36" style="edgeStyle=orthogonalEdgeStyle;rounded=0;orthogonalLoop=1;jettySize=auto;html=1;entryX=0.5;entryY=0;entryDx=0;entryDy=0;" parent="1" source="PxqxfpaHqG03hSLTdIMs-15" target="PxqxfpaHqG03hSLTdIMs-21" edge="1">
          <mxGeometry relative="1" as="geometry" />
        </mxCell>
        <mxCell id="PxqxfpaHqG03hSLTdIMs-37" style="edgeStyle=orthogonalEdgeStyle;rounded=0;orthogonalLoop=1;jettySize=auto;html=1;entryX=0;entryY=0;entryDx=0;entryDy=0;" parent="1" source="PxqxfpaHqG03hSLTdIMs-15" target="PxqxfpaHqG03hSLTdIMs-22" edge="1">
          <mxGeometry relative="1" as="geometry" />
        </mxCell>
        <mxCell id="PxqxfpaHqG03hSLTdIMs-38" style="edgeStyle=orthogonalEdgeStyle;rounded=0;orthogonalLoop=1;jettySize=auto;html=1;entryX=0.7;entryY=0;entryDx=0;entryDy=0;entryPerimeter=0;" parent="1" source="PxqxfpaHqG03hSLTdIMs-15" target="PxqxfpaHqG03hSLTdIMs-19" edge="1">
          <mxGeometry relative="1" as="geometry" />
        </mxCell>
        <mxCell id="PxqxfpaHqG03hSLTdIMs-15" value="Ruangan" style="whiteSpace=wrap;html=1;align=center;" parent="1" vertex="1">
          <mxGeometry x="330" y="520" width="100" height="40" as="geometry" />
        </mxCell>
        <mxCell id="PxqxfpaHqG03hSLTdIMs-16" value="Kode Ruangan" style="ellipse;whiteSpace=wrap;html=1;align=center;fontStyle=4;" parent="1" vertex="1">
          <mxGeometry x="330" y="700" width="100" height="40" as="geometry" />
        </mxCell>
        <mxCell id="PxqxfpaHqG03hSLTdIMs-17" value="Lantai" style="ellipse;whiteSpace=wrap;html=1;align=center;" parent="1" vertex="1">
          <mxGeometry x="140" y="565" width="100" height="40" as="geometry" />
        </mxCell>
        <mxCell id="PxqxfpaHqG03hSLTdIMs-18" value="Gedung" style="ellipse;whiteSpace=wrap;html=1;align=center;" parent="1" vertex="1">
          <mxGeometry x="200" y="610" width="100" height="40" as="geometry" />
        </mxCell>
        <mxCell id="PxqxfpaHqG03hSLTdIMs-19" value="Nama Ruangan" style="ellipse;whiteSpace=wrap;html=1;align=center;" parent="1" vertex="1">
          <mxGeometry x="250" y="660" width="100" height="40" as="geometry" />
        </mxCell>
        <mxCell id="PxqxfpaHqG03hSLTdIMs-20" value="Jenis Ruangan" style="ellipse;whiteSpace=wrap;html=1;align=center;" parent="1" vertex="1">
          <mxGeometry x="520" y="565" width="100" height="40" as="geometry" />
        </mxCell>
        <mxCell id="PxqxfpaHqG03hSLTdIMs-21" value="Kapasitas" style="ellipse;whiteSpace=wrap;html=1;align=center;" parent="1" vertex="1">
          <mxGeometry x="460" y="610" width="100" height="40" as="geometry" />
        </mxCell>
        <mxCell id="PxqxfpaHqG03hSLTdIMs-22" value="Status" style="ellipse;whiteSpace=wrap;html=1;align=center;" parent="1" vertex="1">
          <mxGeometry x="410" y="660" width="100" height="40" as="geometry" />
        </mxCell>
        <mxCell id="mDD73wP0_zgOxC7ukqkO-9" style="edgeStyle=orthogonalEdgeStyle;rounded=0;orthogonalLoop=1;jettySize=auto;html=1;" edge="1" parent="1" source="mDD73wP0_zgOxC7ukqkO-1" target="mDD73wP0_zgOxC7ukqkO-2">
          <mxGeometry relative="1" as="geometry" />
        </mxCell>
        <mxCell id="mDD73wP0_zgOxC7ukqkO-1" value="honorium employee" style="shape=rhombus;perimeter=rhombusPerimeter;whiteSpace=wrap;html=1;align=center;" vertex="1" parent="1">
          <mxGeometry x="70" y="230" width="120" height="60" as="geometry" />
        </mxCell>
        <mxCell id="mDD73wP0_zgOxC7ukqkO-6" style="edgeStyle=orthogonalEdgeStyle;rounded=0;orthogonalLoop=1;jettySize=auto;html=1;exitX=0.5;exitY=1;exitDx=0;exitDy=0;entryX=0.5;entryY=0;entryDx=0;entryDy=0;" edge="1" parent="1" source="mDD73wP0_zgOxC7ukqkO-2" target="mDD73wP0_zgOxC7ukqkO-4">
          <mxGeometry relative="1" as="geometry" />
        </mxCell>
        <mxCell id="mDD73wP0_zgOxC7ukqkO-7" style="edgeStyle=orthogonalEdgeStyle;rounded=0;orthogonalLoop=1;jettySize=auto;html=1;entryX=0.5;entryY=0;entryDx=0;entryDy=0;" edge="1" parent="1" source="mDD73wP0_zgOxC7ukqkO-2" target="mDD73wP0_zgOxC7ukqkO-3">
          <mxGeometry relative="1" as="geometry" />
        </mxCell>
        <mxCell id="mDD73wP0_zgOxC7ukqkO-8" style="edgeStyle=orthogonalEdgeStyle;rounded=0;orthogonalLoop=1;jettySize=auto;html=1;entryX=0.5;entryY=0;entryDx=0;entryDy=0;" edge="1" parent="1" source="mDD73wP0_zgOxC7ukqkO-2" target="mDD73wP0_zgOxC7ukqkO-5">
          <mxGeometry relative="1" as="geometry" />
        </mxCell>
        <mxCell id="mDD73wP0_zgOxC7ukqkO-2" value="Honorium" style="whiteSpace=wrap;html=1;align=center;" vertex="1" parent="1">
          <mxGeometry x="80" y="310" width="100" height="40" as="geometry" />
        </mxCell>
        <mxCell id="mDD73wP0_zgOxC7ukqkO-3" value="ID Honorium" style="ellipse;whiteSpace=wrap;html=1;align=center;fontStyle=4;" vertex="1" parent="1">
          <mxGeometry x="10" y="380" width="100" height="40" as="geometry" />
        </mxCell>
        <mxCell id="mDD73wP0_zgOxC7ukqkO-4" value="Gaji" style="ellipse;whiteSpace=wrap;html=1;align=center;" vertex="1" parent="1">
          <mxGeometry x="80" y="430" width="100" height="40" as="geometry" />
        </mxCell>
        <mxCell id="mDD73wP0_zgOxC7ukqkO-5" value="Bonus" style="ellipse;whiteSpace=wrap;html=1;align=center;" vertex="1" parent="1">
          <mxGeometry x="140" y="380" width="100" height="40" as="geometry" />
        </mxCell>
      </root>
    </mxGraphModel>
  </diagram>
</mxfile>
